<?xml version="1.0" encoding="UTF-8"?>
<svg width="200" height="200" viewBox="0 0 200 200" xmlns="http://www.w3.org/2000/svg">
  <defs>
    <linearGradient id="logoGradient" x1="0%" y1="0%" x2="100%" y2="100%">
      <stop offset="0%" style="stop-color:#2563eb;stop-opacity:1" />
      <stop offset="100%" style="stop-color:#10b981;stop-opacity:1" />
    </linearGradient>
  </defs>
  
  <!-- Background circle -->
  <circle cx="100" cy="100" r="90" fill="url(#logoGradient)" />
  
  <!-- Zeppelin shape -->
  <ellipse cx="100" cy="100" rx="65" ry="25" fill="white" opacity="0.9" />
  
  <!-- House symbol inside -->
  <path d="M100 80 L85 95 L85 120 L115 120 L115 95 Z" fill="url(#logoGradient)" />
  <path d="M100 80 L75 100 L85 100 L100 85 L115 100 L125 100 Z" fill="url(#logoGradient)" />
  
  <!-- Connection lines -->
  <circle cx="70" cy="85" r="3" fill="white" opacity="0.8" />
  <circle cx="130" cy="85" r="3" fill="white" opacity="0.8" />
  <circle cx="70" cy="115" r="3" fill="white" opacity="0.8" />
  <circle cx="130" cy="115" r="3" fill="white" opacity="0.8" />
  
  <line x1="70" y1="85" x2="85" y2="95" stroke="white" stroke-width="2" opacity="0.6" />
  <line x1="130" y1="85" x2="115" y2="95" stroke="white" stroke-width="2" opacity="0.6" />
  <line x1="70" y1="115" x2="85" y2="110" stroke="white" stroke-width="2" opacity="0.6" />
  <line x1="130" y1="115" x2="115" y2="110" stroke="white" stroke-width="2" opacity="0.6" />
</svg>