<svg xmlns="http://www.w3.org/2000/svg" viewBox="0 0 400 300" style="background: linear-gradient(to bottom, #4169E1 0%, #87CEEB 100%);">
  <defs>
    <linearGradient id="techGrad" x1="0%" y1="0%" x2="100%" y2="100%">
      <stop offset="0%" style="stop-color:#1E90FF;stop-opacity:1" />
      <stop offset="50%" style="stop-color:#00BFFF;stop-opacity:1" />
      <stop offset="100%" style="stop-color:#87CEEB;stop-opacity:1" />
    </linearGradient>
    <radialGradient id="propellerGrad" cx="50%" cy="50%">
      <stop offset="0%" style="stop-color:#C0C0C0;stop-opacity:1" />
      <stop offset="100%" style="stop-color:#808080;stop-opacity:1" />
    </radialGradient>
  </defs>
  
  <!-- Propulsion system base -->
  <rect x="150" y="150" width="100" height="40" rx="20" fill="url(#techGrad)" stroke="#4169E1" stroke-width="2"/>
  
  <!-- Propellers -->
  <circle cx="120" cy="170" r="25" fill="none" stroke="url(#propellerGrad)" stroke-width="3" opacity="0.6"/>
  <circle cx="280" cy="170" r="25" fill="none" stroke="url(#propellerGrad)" stroke-width="3" opacity="0.6"/>
  
  <!-- Propeller blades (spinning effect) -->
  <path d="M95 170 Q120 150 145 170 Q120 190 95 170" fill="url(#propellerGrad)" opacity="0.4"/>
  <path d="M255 170 Q280 150 305 170 Q280 190 255 170" fill="url(#propellerGrad)" opacity="0.4"/>
  
  <!-- Control systems -->
  <rect x="170" y="130" width="60" height="15" rx="3" fill="#32CD32" stroke="#228B22"/>
  <circle cx="185" cy="137" r="3" fill="#00FF00"/>
  <circle cx="200" cy="137" r="3" fill="#00FF00"/>
  <circle cx="215" cy="137" r="3" fill="#FFD700"/>
  
  <!-- Stabilization fins -->
  <path d="M200 120 L190 100 L210 100 Z" fill="url(#techGrad)" stroke="#4169E1"/>
  <path d="M200 200 L190 220 L210 220 Z" fill="url(#techGrad)" stroke="#4169E1"/>
  
  <!-- Energy indicators -->
  <rect x="160" y="200" width="80" height="6" rx="3" fill="#000000" opacity="0.3"/>
  <rect x="162" y="202" width="60" height="2" rx="1" fill="#00FF00"/>
  
  <!-- Motion lines (indicating movement) -->
  <line x1="80" y1="155" x2="110" y2="160" stroke="#ffffff" stroke-width="2" opacity="0.6"/>
  <line x1="85" y1="170" x2="115" y2="175" stroke="#ffffff" stroke-width="2" opacity="0.6"/>
  <line x1="80" y1="185" x2="110" y2="180" stroke="#ffffff" stroke-width="2" opacity="0.6"/>
  
  <line x1="290" y1="155" x2="320" y2="160" stroke="#ffffff" stroke-width="2" opacity="0.6"/>
  <line x1="285" y1="170" x2="315" y2="175" stroke="#ffffff" stroke-width="2" opacity="0.6"/>
  <line x1="290" y1="185" x2="320" y2="180" stroke="#ffffff" stroke-width="2" opacity="0.6"/>
</svg>